<svg width="22" height="12" viewBox="0 0 22 12" fill="none" xmlns="http://www.w3.org/2000/svg">
<path d="M1.01063 7.24899L18.7005 7.25618L15.5817 10.3822C15.4911 10.4706 15.419 10.5762 15.3696 10.6928C15.3202 10.8094 15.2946 10.9346 15.2943 11.0613C15.2969 11.2487 15.3548 11.4312 15.4608 11.5858C15.5667 11.7405 15.7159 11.8605 15.8897 11.9307C16.0635 12.0009 16.2542 12.0182 16.4378 11.9806C16.6214 11.9429 16.7899 11.8518 16.922 11.7188L21.6792 6.96873C21.7678 6.8803 21.838 6.77528 21.8859 6.65968C21.9338 6.54408 21.9585 6.42017 21.9585 6.29503C21.9585 6.16989 21.9338 6.04597 21.8859 5.93037C21.838 5.81477 21.7678 5.70976 21.6792 5.62132L16.922 0.871259C16.0237 -0.0593519 14.6475 1.32758 15.5817 2.21867L18.7185 5.35543L1.01063 5.34825C0.880913 5.34027 0.750933 5.35893 0.628697 5.40308C0.506462 5.44723 0.394559 5.51594 0.299881 5.60497C0.205203 5.69401 0.129754 5.80148 0.0781803 5.92077C0.0266066 6.04007 0 6.16866 0 6.29862C0 6.42859 0.0266066 6.55717 0.0781803 6.67647C0.129754 6.79576 0.205203 6.90323 0.299881 6.99227C0.394559 7.0813 0.506462 7.15001 0.628697 7.19416C0.750933 7.23831 0.880913 7.25697 1.01063 7.24899Z" fill="white"/>
</svg>
