<svg width="22" height="12" viewBox="0 0 22 12" fill="none" xmlns="http://www.w3.org/2000/svg">
<path d="M20.9894 7.24899L3.29946 7.25618L6.41826 10.3822C6.50892 10.4706 6.58104 10.5762 6.6304 10.6928C6.67976 10.8094 6.70536 10.9346 6.70571 11.0613C6.70307 11.2487 6.64515 11.4312 6.53923 11.5858C6.43331 11.7405 6.2841 11.8605 6.11029 11.9307C5.93648 12.0009 5.74581 12.0182 5.56218 11.9806C5.37855 11.9429 5.21014 11.8518 5.07804 11.7188L0.320791 6.96873C0.232248 6.8803 0.162006 6.77528 0.11408 6.65968C0.0661545 6.54408 0.0414867 6.42017 0.0414867 6.29503C0.0414867 6.16989 0.0661545 6.04597 0.11408 5.93037C0.162006 5.81477 0.232248 5.70976 0.320791 5.62132L5.07804 0.871259C5.97631 -0.0593519 7.35247 1.32758 6.41826 2.21867L3.2815 5.35543L20.9894 5.34825C21.1191 5.34027 21.2491 5.35893 21.3713 5.40308C21.4935 5.44723 21.6054 5.51594 21.7001 5.60497C21.7948 5.69401 21.8702 5.80148 21.9218 5.92077C21.9734 6.04007 22 6.16866 22 6.29862C22 6.42859 21.9734 6.55717 21.9218 6.67647C21.8702 6.79576 21.7948 6.90323 21.7001 6.99227C21.6054 7.0813 21.4935 7.15001 21.3713 7.19416C21.2491 7.23831 21.1191 7.25697 20.9894 7.24899Z" fill="#222222"/>
</svg>
